<svg width="121" height="120" viewBox="0 0 121 120" fill="none" xmlns="http://www.w3.org/2000/svg">
<rect x="0.5" width="120" height="120" rx="60" fill="#725FEB"/>
<path d="M60.355 28.2849C57.995 25.9649 54.195 25.9649 51.875 28.2849L29.235 50.9249C26.915 53.2449 26.915 57.0449 29.235 59.4049C31.635 61.8049 35.475 61.6449 37.715 59.4049L60.355 36.7649C61.4786 35.6399 62.1097 34.1149 62.1097 32.5249C62.1097 30.9349 61.4786 29.4099 60.355 28.2849ZM71.675 39.6049C71.1206 39.0438 70.4604 38.5982 69.7326 38.2941C69.0047 37.9901 68.2238 37.8335 67.435 37.8335C66.6462 37.8335 65.8652 37.9901 65.1374 38.2941C64.4095 38.5982 63.7493 39.0438 63.195 39.6049L40.555 62.2449C39.9938 62.7993 39.5483 63.4595 39.2442 64.1873C38.9401 64.9152 38.7835 65.6961 38.7835 66.4849C38.7835 67.2737 38.9401 68.0547 39.2442 68.7825C39.5483 69.5103 39.9938 70.1706 40.555 70.7249C42.955 73.1249 46.795 72.9249 49.035 70.7249L71.675 48.0849C73.995 45.7649 73.995 41.9649 71.675 39.6049ZM75.915 66.4849L92.635 83.2049C94.995 85.5249 94.995 89.3249 92.635 91.6849C90.275 94.0449 86.475 94.0449 84.155 91.6849L67.435 74.9649L60.355 82.0449C57.995 84.3649 54.195 84.3649 51.875 82.0449C49.515 79.6849 49.515 75.8849 51.875 73.5249L74.515 50.9249C75.0693 50.3638 75.7296 49.9182 76.4574 49.6141C77.1852 49.3101 77.9662 49.1535 78.755 49.1535C79.5438 49.1535 80.3247 49.3101 81.0526 49.6141C81.7804 49.9182 82.4406 50.3638 82.995 50.9249C85.315 53.2449 85.315 57.0449 82.995 59.4049L75.915 66.4849ZM38.595 81.6449C38.595 75.2849 31.955 65.6449 31.955 65.6449C31.955 65.6449 26.595 76.7649 26.595 81.6449C26.595 86.5249 28.995 89.6449 31.955 89.6449H33.235C36.195 89.6449 38.595 88.0049 38.595 81.6449Z" fill="#F4F4F4"/>
</svg>
