<svg width="15" height="14" viewBox="0 0 15 14" fill="none" xmlns="http://www.w3.org/2000/svg">
<g clip-path="url(#clip0_30_305)">
<path d="M11.1205 13.1374C10.9509 13.1377 10.7852 13.0869 10.6449 12.9916L7.78322 11.0736C7.76913 11.0639 7.7524 11.0587 7.73527 11.0587C7.71814 11.0587 7.70142 11.0639 7.68732 11.0736L4.82568 12.9916C4.68198 13.0876 4.5125 13.1375 4.33973 13.1349C4.16696 13.1322 3.99909 13.0771 3.8584 12.9768C3.71771 12.8765 3.61087 12.7357 3.55206 12.5733C3.49324 12.4108 3.48524 12.2343 3.52912 12.0672L4.46894 8.75287C4.47338 8.7362 4.47284 8.7186 4.46739 8.70224C4.46193 8.68588 4.4518 8.67147 4.43825 8.66081L1.73005 6.53184C1.58748 6.42563 1.48172 6.27747 1.42761 6.10812C1.3735 5.93877 1.37375 5.75674 1.42831 5.58754C1.48288 5.41834 1.58903 5.27046 1.73189 5.16464C1.87474 5.05881 2.04713 5.00035 2.22489 4.99745L5.67727 4.86702C5.69424 4.86585 5.71052 4.8598 5.72413 4.84959C5.73774 4.83938 5.74811 4.82545 5.75399 4.80948L6.94314 1.57575C7.00308 1.41182 7.11195 1.27026 7.25501 1.17025C7.39806 1.07024 7.5684 1.0166 7.74294 1.0166C7.91749 1.0166 8.08783 1.07024 8.23088 1.17025C8.37394 1.27026 8.48281 1.41182 8.54275 1.57575L9.7319 4.80948C9.73778 4.82545 9.74815 4.83938 9.76176 4.84959C9.77537 4.8598 9.79165 4.86585 9.80862 4.86702L13.261 4.99745C13.4388 5.00035 13.6111 5.05881 13.754 5.16464C13.8969 5.27046 14.003 5.41834 14.0576 5.58754C14.1121 5.75674 14.1124 5.93877 14.0583 6.10812C14.0042 6.27747 13.8984 6.42563 13.7558 6.53184L11.0476 8.66081C11.0337 8.67113 11.0232 8.68551 11.0177 8.70199C11.0122 8.71846 11.012 8.73623 11.017 8.75287L11.9568 12.0672C11.9898 12.1943 11.993 12.3273 11.9663 12.4559C11.9396 12.5845 11.8837 12.7052 11.8028 12.8087C11.722 12.9122 11.6184 12.9957 11.5 13.0527C11.3817 13.1097 11.2519 13.1387 11.1205 13.1374ZM7.73719 10.2911C7.9071 10.2961 8.07156 10.3522 8.20902 10.4522L11.0707 12.3702C11.0852 12.3812 11.1028 12.3873 11.1211 12.3874C11.1393 12.3875 11.157 12.3818 11.1717 12.371C11.1864 12.3602 11.1972 12.345 11.2025 12.3275C11.2078 12.3101 11.2073 12.2914 11.2011 12.2743L10.2613 8.96001C10.215 8.79743 10.2184 8.62473 10.2711 8.4641C10.3237 8.30347 10.4231 8.16225 10.5566 8.05856L13.2648 5.92959C13.2796 5.91921 13.2907 5.90437 13.2964 5.88725C13.3021 5.87012 13.3022 5.85162 13.2966 5.83445C13.291 5.81728 13.2801 5.80235 13.2654 5.79186C13.2507 5.78136 13.233 5.77586 13.215 5.77615L9.76259 5.64573C9.59354 5.63914 9.43029 5.58235 9.29365 5.4826C9.15701 5.38286 9.05318 5.24467 8.99539 5.08567L7.80624 1.85194C7.80088 1.83477 7.79017 1.81977 7.77568 1.80911C7.76119 1.79845 7.74367 1.79271 7.72568 1.79271C7.7077 1.79271 7.69018 1.79845 7.67569 1.80911C7.6612 1.81977 7.65049 1.83477 7.64513 1.85194L6.46748 5.08184C6.40969 5.24084 6.30586 5.37902 6.16922 5.47877C6.03258 5.57851 5.86933 5.6353 5.70028 5.64189L2.2479 5.77231C2.22985 5.77202 2.21218 5.77753 2.19749 5.78802C2.1828 5.79851 2.17186 5.81344 2.16628 5.83061C2.1607 5.84778 2.16078 5.86629 2.16649 5.88341C2.17221 5.90054 2.18326 5.91538 2.19804 5.92575L4.91007 8.05856C5.04316 8.16258 5.1423 8.30383 5.1949 8.46435C5.24749 8.62487 5.25117 8.7974 5.20544 8.96001L4.26946 12.2743C4.26388 12.2909 4.26385 12.3089 4.26939 12.3255C4.27493 12.3421 4.28573 12.3564 4.30015 12.3664C4.31405 12.3782 4.33173 12.3848 4.35002 12.3848C4.36831 12.3848 4.38599 12.3782 4.39989 12.3664L7.26153 10.4484C7.40118 10.3552 7.56546 10.3058 7.73335 10.3064L7.73719 10.2911Z" fill="#1D1D1D"/>
</g>
<defs>
<clipPath id="clip0_30_305">
<rect width="13.8095" height="13.8095" fill="white" transform="translate(0.69043 0.0952148)"/>
</clipPath>
</defs>
</svg>
